<svg width="54" height="55" viewBox="0 0 54 55" fill="none" xmlns="http://www.w3.org/2000/svg">
<path d="M38.3991 4.5835H16.1122C9.95784 4.5835 4.96875 9.71357 4.96875 16.0418V38.9585C4.96875 45.2868 9.95784 50.4168 16.1122 50.4168H38.3991C44.5534 50.4168 49.5425 45.2868 49.5425 38.9585V16.0418C49.5425 9.71357 44.5534 4.5835 38.3991 4.5835Z" stroke="#ECEBEB" stroke-width="2" stroke-linecap="round" stroke-linejoin="round"/>
<path d="M36.1706 26.0565C36.4456 27.9637 36.1288 29.9115 35.2652 31.6229C34.4016 33.3344 33.0351 34.7222 31.3602 35.589C29.6853 36.4559 27.7873 36.7576 25.936 36.4513C24.0847 36.145 22.3745 35.2462 21.0486 33.8829C19.7227 32.5195 18.8486 30.761 18.5507 28.8574C18.2528 26.9538 18.5463 25.002 19.3893 23.2798C20.2323 21.5576 21.582 20.1525 23.2464 19.2645C24.9108 18.3765 26.8051 18.0507 28.6599 18.3335C30.5519 18.622 32.3035 19.5286 33.6559 20.9192C35.0084 22.3099 35.89 24.111 36.1706 26.0565Z" stroke="#ECEBEB" stroke-width="2" stroke-linecap="round" stroke-linejoin="round"/>
<path d="M39.5134 14.896H39.5369" stroke="#ECEBEB" stroke-width="2" stroke-linecap="round" stroke-linejoin="round"/>
</svg>
