<svg width="170" height="403" viewBox="0 0 170 403" fill="none" xmlns="http://www.w3.org/2000/svg">
<path d="M159 268.296L9 267L51.3484 341.935C51.3484 341.935 82.7062 302.757 114.444 342C159 268.296 159 268.296 159 268.296Z" fill="#E6E6E6" stroke="#E6E6E6" stroke-width="10" stroke-miterlimit="10"/>
<path d="M104 357.997L84.2429 393L62 357.997C62 357.997 83.7884 324.254 104 357.997Z" fill="#E6E6E6" stroke="#E6E6E6" stroke-width="10" stroke-miterlimit="10"/>
<path d="M113 108C141.167 108 164 85.1665 164 57C164 28.8335 141.167 6 113 6C84.8335 6 62 28.8335 62 57C62 85.1665 84.8335 108 113 108Z" stroke="#E6E6E6" stroke-width="12" stroke-miterlimit="10"/>
<path d="M6 238V28" stroke="#E6E6E6" stroke-width="12" stroke-miterlimit="10"/>
<path d="M47 127L165 234" stroke="#E6E6E6" stroke-width="12" stroke-miterlimit="10"/>
</svg>
